<?xml version="1.0" encoding="UTF-8"?> <svg xmlns="http://www.w3.org/2000/svg" version="1.1" viewBox="0 0 652 163.2" xml:space="preserve"> <style type="text/css"> .st0{fill:#2581C4;} .st1{fill:#F39200;} .st2{fill:#0078BF;} </style> <path class="st0" d="M181.2,67.2V27c0-17.7,12.8-27,28.7-27h26.3c15.9,0,28.7,9.3,28.7,27v21.8c0,3.2-0.4,5.9-5.1,5.9H206 c-3.1,0-5.9-1.3-7.7-3.6V68c0,6.3,5.1,11.2,11.6,11.2h48.7c1.2,0,2.2,0.9,2.2,2.1v13.7h-50.9C194,94.9,181.2,82.6,181.2,67.2z M209.9,15.6c-6.5,0-11.6,3.6-11.6,11.2V37c0,1.1,0.8,1.9,2,2.1H246c1.2,0,2.2-0.9,2.2-2.1V26.8c0-7.6-3.7-11.2-11.4-11.2H209.9z"></path> <path class="st0" d="m115.8 0v68c0 6.3 5.1 11.2 11.6 11.2h42.8c1.2 0 2.2 0.9 2.2 2.1v13.7h-44.9c-15.9 0-28.7-12.3-28.7-27.7v-67.3h17z"></path> <path class="st1" d="m475.6 37.8v-12.7c0-15.4 11-25.1 26.9-25.1h53.8v13.5c0 1.1-1 2.1-2.2 2.1h-51.7c-6.5 0-9.8 3-9.8 9.3v5.5c0 0.9 0.8 1.7 1.8 2.1l60.7 13.9c3.1 0.6 5.3 3.2 5.3 6.3v16.9c0 16.5-12.2 25.4-28.1 25.4h-55.6v-13.6c0-1.1 1-2.1 2.2-2.1h53.4c6.5 0 12.2-3.6 12.2-9.9v-8.9c0-0.9-0.8-1.7-1.8-1.9l-61.6-14.6c-3.1-0.5-5.5-3.2-5.5-6.2z"></path> <path class="st0" d="m360.5 26.6v62.3c0 3.4-2.8 6.1-6.3 6.1h-46c-15.9 0-28.7-12.3-28.7-27.7v-5.9c0-15.4 12.8-27.7 28.7-27.7h33.2c1.2 0 2.2-0.9 2.2-2.1v-4.8c0-6.1-4.1-11.2-11.8-11.2h-39.1c-1.2 0-2.2-0.9-2.2-2.1v-13.5h41.2c16.1 0 28.8 9.3 28.8 26.6zm-52.2 52.2h33.4c1.2 0 2-0.9 2-2.1v-30.2c-1 1.7-3 2.7-5.1 2.8h-30.2c-6.5 0-11.6 4.9-11.6 11.2v7c-0.1 6.4 5 11.3 11.5 11.3z"></path> <path class="st0" d="m83.6 28.2v-1.2c0-17.7-12.7-27-28.6-27h-26.3c-15.9 0-28.7 9.3-28.7 27v40.2c0 0.2 0.1 0.4 0.1 0.7 0.3 15 12.9 27 28.6 27h26.3c10.5 0 19.6-4.1 24.6-12 2.6-4 4.1-9 4.1-15v-1.2h-16.7v1.4c0 6.6-2.8 10.2-8.6 11h-29.7c-6.5 0-11.6-4.9-11.6-11.2v-41.1c0-7.6 5.1-11.2 11.6-11.2h26.9c7.7 0 11.4 3.6 11.4 11.2v1.4h16.6z"></path> <path class="st1" d="m640.8 0c-1.3 0-2.5 0.5-3.5 1.1-1.5 1-2.6 2.4-3 4.2l-15.2 42.8c-0.1 0.1-0.2 0.2-0.2 0.4-1.4 0.8-2.9 1.2-4.7 1.2h-6.2c-1.8 0-3.4-0.5-4.7-1.2-0.1-0.2-0.2-0.3-0.3-0.5l-15.2-42.7c-0.3-1.8-1.5-3.2-3-4.2-1-0.7-2.2-1.1-3.5-1.1h-11.6l19.9 58.4 0.5 1.6c0.6 3 3.3 5.1 6.5 5.1h16.6l-9.9 29.8h11.8c1.3 0 2.5-0.5 3.5-1.1 1.5-0.9 2.6-2.4 3-4.2l30.4-89.6h-11.2z"></path> <path class="st2" d="m7.4 152.9c-1.9-1.1-3.2-2.5-3.9-4.3-0.1-0.3-0.2-0.6-0.2-0.8 0-0.4 0.1-0.7 0.4-1s0.6-0.5 1.1-0.6h0.3c0.4 0 0.7 0.1 1.1 0.4 0.3 0.2 0.6 0.6 0.8 1 0.4 1 1.3 1.8 2.5 2.5s2.6 1 4.1 1c1.8 0 3.3-0.4 4.5-1.3s1.8-2.1 1.8-3.6c0-1.4-0.5-2.6-1.6-3.7s-2.6-1.6-4.7-1.9c-2.9-0.3-5.2-1.2-6.9-2.7s-2.5-3.4-2.5-5.7c0-1.6 0.4-3 1.3-4.2s2-2.1 3.5-2.7 3.2-0.9 5-0.9c2 0 3.7 0.4 5.1 1.3s2.6 2.1 3.5 3.8c0.3 0.5 0.4 0.9 0.4 1.4 0 0.6-0.2 1-0.7 1.4-0.3 0.2-0.6 0.3-0.9 0.3s-0.7-0.1-1-0.3-0.5-0.4-0.7-0.8c-0.6-1.1-1.4-2-2.4-2.6-0.9-0.6-2.2-0.9-3.6-0.9-1.8 0-3.2 0.4-4.3 1.1s-1.7 1.8-1.7 3.2c0 1.3 0.5 2.4 1.5 3.3s2.8 1.5 5.3 1.7c2.8 0.3 5 1.2 6.6 2.7s2.3 3.5 2.3 6c0 1.8-0.5 3.4-1.4 4.6-0.9 1.3-2.1 2.3-3.7 2.9-1.5 0.6-3.2 1-4.9 1-2 0.1-4.1-0.5-6-1.6z"></path> <path class="st2" d="m49.7 134.9c1.5 0.9 2.6 2.2 3.5 3.8s1.3 3.4 1.3 5.3v8.4c0 0.6-0.2 1-0.5 1.4s-0.8 0.6-1.3 0.6-0.9-0.2-1.3-0.6c-0.3-0.4-0.5-0.8-0.5-1.4v-1.4c-0.8 1.1-1.8 1.9-3 2.5s-2.4 0.9-3.8 0.9c-1.7 0-3.2-0.4-4.6-1.4-1.4-0.9-2.5-2.1-3.2-3.7-0.8-1.6-1.2-3.4-1.2-5.3s0.4-3.7 1.3-5.3c0.8-1.6 2-2.9 3.5-3.8s3.2-1.4 5-1.4c1.6 0 3.3 0.4 4.8 1.4zm-1.8 15.2c0.9-0.6 1.7-1.4 2.2-2.5s0.8-2.3 0.8-3.6-0.3-2.5-0.8-3.6-1.3-1.9-2.2-2.5-2-0.9-3.2-0.9-2.2 0.3-3.2 0.9c-0.9 0.6-1.7 1.5-2.3 2.5s-0.8 2.3-0.8 3.6 0.3 2.5 0.8 3.6c0.6 1.1 1.3 1.9 2.3 2.5 0.9 0.6 2 0.9 3.2 0.9s2.3-0.3 3.2-0.9z"></path> <path class="st2" d="m72 129.7c-0.8 0.9-1.2 2.2-1.2 3.7v1h3.6c0.5 0 0.9 0.1 1.2 0.4s0.5 0.7 0.5 1.2c0 0.4-0.1 0.8-0.5 1.1-0.3 0.3-0.7 0.4-1.2 0.4h-3.6v14.7c0 0.6-0.2 1-0.5 1.4s-0.8 0.5-1.4 0.5c-0.5 0-0.9-0.2-1.2-0.5-0.3-0.4-0.5-0.8-0.5-1.4v-14.7h-1.5c-0.5 0-0.9-0.1-1.2-0.4s-0.5-0.7-0.5-1.1c0-0.5 0.1-0.9 0.5-1.2 0.3-0.3 0.7-0.4 1.2-0.4h1.5v-0.6c0-1.8 0.3-3.3 1-4.7s1.6-2.4 2.8-3.1 2.6-1.1 4.1-1.1c0.5 0 0.9 0.2 1.3 0.5s0.5 0.7 0.5 1.2-0.2 0.9-0.5 1.2-0.8 0.5-1.3 0.5c-1.2 0-2.3 0.5-3.1 1.4z"></path> <path class="st2" d="m103.1 144.8c-0.3 0.3-0.7 0.5-1.2 0.5h-13.4c0.3 1.8 1 3.2 2.2 4.2s2.8 1.6 4.5 1.6c0.7 0 1.4-0.1 2.2-0.4s1.4-0.6 1.9-1c0.3-0.3 0.7-0.4 1.2-0.4s0.8 0.1 1.1 0.4c0.4 0.4 0.6 0.8 0.6 1.3 0 0.4-0.2 0.8-0.6 1.1-0.8 0.7-1.8 1.2-3 1.6s-2.3 0.6-3.4 0.6c-1.9 0-3.7-0.4-5.2-1.3s-2.7-2.1-3.6-3.7-1.3-3.4-1.3-5.4 0.4-3.8 1.2-5.4 1.9-2.8 3.4-3.7c1.4-0.9 3.1-1.3 4.9-1.3s3.4 0.4 4.7 1.3 2.3 2 3 3.6c0.7 1.5 1.1 3.3 1.1 5.3 0.2 0.4 0 0.8-0.3 1.1zm-12.5-6.6c-1.1 1-1.8 2.4-2 4h11.8c-0.2-1.7-0.8-3-1.8-4s-2.2-1.5-3.8-1.5c-1.7 0-3.1 0.5-4.2 1.5z"></path> <path class="st2" d="m124.6 151c0.3 0.4 0.4 0.8 0.4 1.4s-0.2 1-0.6 1.4-0.9 0.5-1.5 0.5h-0.6c-1.2 0-2.2-0.3-3.2-1s-1.7-1.5-2.2-2.6-0.8-2.4-0.8-3.7v-9.3h-1.6c-0.5 0-0.9-0.1-1.2-0.4s-0.5-0.7-0.5-1.1c0-0.5 0.1-0.9 0.5-1.2 0.3-0.3 0.7-0.4 1.2-0.4h1.6v-5.6c0-0.6 0.2-1 0.5-1.4s0.8-0.5 1.3-0.5 0.9 0.2 1.3 0.5 0.5 0.8 0.5 1.4v5.4h3c0.5 0 0.9 0.1 1.2 0.4s0.5 0.7 0.5 1.2c0 0.4-0.1 0.8-0.5 1.1s-0.7 0.4-1.2 0.4h-3v9.3c0 1 0.3 1.8 0.8 2.5s1.1 1 1.9 1h1.2c0.3 0.2 0.7 0.3 1 0.7z"></path> <path class="st2" d="m152.4 135.3c0 0.2-0.1 0.6-0.2 0.9l-10.8 25.9c-0.3 0.8-0.7 1.2-1.4 1.2-0.2 0-0.5-0.1-0.9-0.2-0.7-0.3-1.1-0.8-1.1-1.5 0-0.3 0.1-0.6 0.2-0.9l3.5-8.5-7.9-16.1c-0.1-0.2-0.2-0.5-0.2-0.8s0.1-0.6 0.3-0.9 0.4-0.5 0.7-0.6c0.2-0.1 0.4-0.1 0.7-0.1 0.7 0 1.1 0.4 1.5 1.1l6.5 13.7 5.7-13.7c0.3-0.7 0.8-1.1 1.4-1.1 0.3 0 0.6 0.1 0.9 0.2 0.7 0.2 1.1 0.7 1.1 1.4z"></path> <path class="st2" d="m182.9 152.9c-1.9-1.1-3.2-2.5-3.9-4.3-0.1-0.3-0.2-0.6-0.2-0.8 0-0.4 0.1-0.7 0.4-1s0.6-0.5 1.1-0.6h0.4c0.4 0 0.7 0.1 1.1 0.4s0.6 0.6 0.8 1c0.4 1 1.3 1.8 2.5 2.5s2.6 1 4.1 1c1.8 0 3.3-0.4 4.5-1.3s1.8-2.1 1.8-3.6c0-1.4-0.5-2.6-1.6-3.7s-2.6-1.6-4.7-1.9c-2.9-0.3-5.2-1.2-6.9-2.7s-2.5-3.4-2.5-5.7c0-1.6 0.4-3 1.3-4.2s2-2.1 3.5-2.7 3.2-0.9 5-0.9c2 0 3.7 0.4 5.1 1.3s2.6 2.1 3.5 3.8c0.3 0.5 0.4 0.9 0.4 1.4 0 0.6-0.2 1-0.7 1.4-0.3 0.2-0.6 0.3-0.9 0.3s-0.7-0.1-1-0.3-0.5-0.4-0.7-0.8c-0.6-1.1-1.4-2-2.4-2.6s-2.2-0.9-3.6-0.9c-1.8 0-3.2 0.4-4.4 1.1-1.1 0.7-1.7 1.8-1.7 3.2 0 1.3 0.5 2.4 1.5 3.3s2.8 1.5 5.3 1.7c2.8 0.3 5 1.2 6.6 2.7s2.3 3.5 2.3 6c0 1.8-0.5 3.4-1.4 4.6-0.9 1.3-2.1 2.3-3.7 2.9s-3.1 1-4.9 1c-2 0.1-4.1-0.5-6-1.6z"></path> <path class="st2" d="m215.2 153c-1.5-0.9-2.6-2.1-3.5-3.7-0.8-1.6-1.2-3.4-1.2-5.4s0.4-3.8 1.2-5.4 2-2.8 3.5-3.7 3.2-1.3 5.1-1.3 3.5 0.4 5 1.3 2.6 2.1 3.5 3.7c0.8 1.6 1.2 3.4 1.2 5.4s-0.4 3.8-1.2 5.4-2 2.8-3.5 3.7-3.1 1.3-5 1.3c-2 0.1-3.7-0.4-5.1-1.3zm8.2-2.9c1-0.6 1.7-1.4 2.2-2.5s0.8-2.3 0.8-3.6-0.3-2.6-0.8-3.6c-0.5-1.1-1.3-1.9-2.2-2.5-1-0.6-2-0.9-3.2-0.9s-2.3 0.3-3.2 0.9-1.7 1.4-2.2 2.5-0.8 2.3-0.8 3.6 0.3 2.6 0.8 3.6 1.3 1.9 2.2 2.5 2 0.9 3.2 0.9 2.3-0.3 3.2-0.9z"></path> <path class="st2" d="m244.2 153.3c-0.8-0.6-1.4-1.4-1.9-2.5s-0.7-2.3-0.7-3.6v-20.5c0-0.6 0.2-1 0.5-1.4s0.8-0.5 1.3-0.5 0.9 0.2 1.3 0.5 0.5 0.8 0.5 1.4v20.5c0 0.9 0.2 1.7 0.5 2.3s0.8 0.9 1.3 0.9h0.9c0.5 0 0.9 0.2 1.1 0.5 0.3 0.4 0.4 0.8 0.4 1.4s-0.2 1-0.7 1.4-1 0.5-1.7 0.5c-1 0-1.9-0.3-2.8-0.9z"></path> <path class="st2" d="m277.3 134.1c0.3 0.4 0.5 0.8 0.5 1.4v16.8c0 0.6-0.2 1-0.5 1.4s-0.8 0.6-1.3 0.6-1-0.2-1.3-0.6-0.5-0.8-0.5-1.4v-0.4c-0.8 0.8-1.6 1.4-2.7 1.9-1 0.4-2.1 0.7-3.3 0.7-1.6 0-3.1-0.4-4.4-1.1-1.3-0.8-2.3-1.9-3-3.3s-1.1-3.2-1.1-5.2v-9.2c0-0.6 0.2-1 0.5-1.4s0.8-0.6 1.3-0.6 1 0.2 1.3 0.6 0.5 0.8 0.5 1.4v9.2c0 2 0.5 3.6 1.5 4.6s2.4 1.6 4.1 1.6c1 0 1.9-0.2 2.7-0.6s1.5-1 1.9-1.7c0.5-0.7 0.7-1.5 0.7-2.4v-10.6c0-0.6 0.2-1 0.5-1.4s0.8-0.5 1.3-0.5c0.5-0.3 1-0.1 1.3 0.2z"></path> <path class="st2" d="m300.5 151c0.3 0.4 0.4 0.8 0.4 1.4s-0.2 1-0.6 1.4-0.9 0.5-1.5 0.5h-0.6c-1.2 0-2.2-0.3-3.2-1s-1.7-1.5-2.2-2.6-0.8-2.4-0.8-3.7v-9.3h-1.6c-0.5 0-0.9-0.1-1.2-0.4s-0.5-0.7-0.5-1.1c0-0.5 0.1-0.9 0.5-1.2s0.7-0.4 1.2-0.4h1.6v-5.6c0-0.6 0.2-1 0.5-1.4s0.8-0.5 1.3-0.5 0.9 0.2 1.3 0.5c0.3 0.4 0.5 0.8 0.5 1.4v5.4h3c0.5 0 0.9 0.1 1.2 0.4s0.5 0.7 0.5 1.2c0 0.4-0.2 0.8-0.5 1.1s-0.7 0.4-1.2 0.4h-3v9.3c0 1 0.3 1.8 0.8 2.5s1.1 1 1.9 1h1.2c0.4 0.2 0.8 0.3 1 0.7z"></path> <path class="st2" d="m313 129.6c-0.5-0.5-0.7-1.1-0.7-1.8s0.2-1.3 0.7-1.8 1-0.7 1.6-0.7 1.2 0.2 1.6 0.7c0.5 0.5 0.7 1.1 0.7 1.8s-0.2 1.3-0.7 1.8-1 0.7-1.6 0.7-1.1-0.3-1.6-0.7zm0.3 24.1c-0.3-0.4-0.5-0.8-0.5-1.4v-16.7c0-0.6 0.2-1 0.5-1.4s0.8-0.5 1.3-0.5 1 0.2 1.3 0.5c0.3 0.4 0.5 0.8 0.5 1.4v16.7c0 0.6-0.2 1-0.5 1.4s-0.8 0.6-1.3 0.6c-0.5-0.1-0.9-0.3-1.3-0.6z"></path> <path class="st2" d="m333.9 153c-1.5-0.9-2.6-2.1-3.5-3.7-0.8-1.6-1.2-3.4-1.2-5.4s0.4-3.8 1.2-5.4 2-2.8 3.5-3.7 3.2-1.3 5.1-1.3 3.5 0.4 5 1.3 2.6 2.1 3.5 3.7c0.8 1.6 1.2 3.4 1.2 5.4s-0.4 3.8-1.2 5.4-2 2.8-3.5 3.7-3.1 1.3-5 1.3c-1.9 0.1-3.6-0.4-5.1-1.3zm8.3-2.9c1-0.6 1.7-1.4 2.2-2.5s0.8-2.3 0.8-3.6-0.3-2.6-0.8-3.6c-0.5-1.1-1.3-1.9-2.2-2.5s-2-0.9-3.2-0.9-2.3 0.3-3.2 0.9c-1 0.6-1.7 1.4-2.2 2.5s-0.8 2.3-0.8 3.6 0.3 2.6 0.8 3.6c0.5 1.1 1.3 1.9 2.2 2.5 1 0.6 2 0.9 3.2 0.9s2.3-0.3 3.2-0.9z"></path> <path class="st2" d="m375.2 134.6c1.3 0.8 2.3 1.9 3 3.3s1.1 3.2 1.1 5.2v9.3c0 0.6-0.2 1-0.5 1.4s-0.8 0.6-1.3 0.6-1-0.2-1.3-0.6-0.5-0.8-0.5-1.4v-9.3c0-2-0.5-3.6-1.5-4.6s-2.4-1.6-4.1-1.6c-1 0-1.9 0.2-2.7 0.6s-1.5 1-1.9 1.7c-0.5 0.7-0.7 1.5-0.7 2.4v10.6c0 0.6-0.2 1-0.5 1.4s-0.8 0.6-1.3 0.6-1-0.2-1.3-0.6-0.5-0.8-0.5-1.4v-16.8c0-0.6 0.2-1 0.5-1.4s0.8-0.5 1.3-0.5 1 0.2 1.3 0.5c0.3 0.4 0.5 0.8 0.5 1.4v0.4c0.8-0.8 1.7-1.4 2.7-1.9 1-0.4 2.2-0.7 3.3-0.7 1.6 0.3 3.1 0.6 4.4 1.4z"></path> <path class="st2" d="m394.9 153.6c-1.4-0.5-2.5-1.2-3.3-2.1-0.3-0.3-0.5-0.7-0.5-1.2 0-0.6 0.2-1.1 0.7-1.5s0.9-0.5 1.2-0.5c0.5 0 0.9 0.2 1.3 0.7 0.5 0.5 1.1 1 2 1.4s1.9 0.6 2.9 0.6c1.3 0 2.4-0.2 3.1-0.7s1.1-1.1 1.1-1.9-0.4-1.4-1.1-1.9-2-0.9-3.7-1.3c-4.5-0.9-6.8-2.9-6.8-5.9 0-1.2 0.3-2.3 1-3.1 0.7-0.9 1.6-1.5 2.7-1.9s2.3-0.6 3.5-0.6c1.5 0 2.9 0.3 4.1 0.8s2.2 1.2 2.9 2.2c0.3 0.4 0.5 0.8 0.5 1.2s-0.2 0.8-0.6 1.2c-0.3 0.2-0.6 0.3-1 0.3-0.6 0-1.2-0.2-1.7-0.7-0.6-0.6-1.2-1-1.9-1.2s-1.5-0.4-2.4-0.4c-1.1 0-2 0.2-2.7 0.6s-1 0.9-1 1.6c0 0.5 0.1 0.9 0.3 1.3 0.2 0.3 0.7 0.6 1.3 0.9 0.7 0.3 1.6 0.6 2.9 0.9 2.6 0.6 4.4 1.3 5.5 2.3s1.6 2.2 1.6 3.8c0 1.1-0.3 2.2-0.9 3.1s-1.5 1.7-2.6 2.2-2.5 0.8-4.1 0.8c-1.4-0.2-2.9-0.5-4.3-1z"></path> <path class="st2" d="m436.9 153.7c-0.3-0.4-0.5-0.8-0.5-1.4v-25.5c0-0.6 0.2-1.1 0.5-1.4 0.3-0.4 0.8-0.6 1.3-0.6h6.4c2.7 0 5 0.6 7.1 1.9 2.1 1.2 3.7 3 4.8 5.2s1.7 4.8 1.7 7.6-0.6 5.4-1.7 7.6c-1.2 2.2-2.8 4-4.8 5.2s-4.4 1.9-7.1 1.9h-6.4c-0.5 0-0.9-0.2-1.3-0.5zm7.7-2.9c2 0 3.7-0.5 5.2-1.4s2.7-2.3 3.6-4 1.3-3.7 1.3-5.8-0.4-4.1-1.3-5.8-2.1-3-3.6-4c-1.5-0.9-3.3-1.4-5.2-1.4h-4.6v22.5l4.6-0.1z"></path> <path class="st2" d="m487.7 144.8c-0.3 0.3-0.7 0.5-1.2 0.5h-13.4c0.3 1.8 1 3.2 2.2 4.2s2.8 1.6 4.5 1.6c0.7 0 1.4-0.1 2.2-0.4s1.4-0.6 1.9-1c0.3-0.3 0.7-0.4 1.2-0.4s0.8 0.1 1.1 0.4c0.4 0.4 0.6 0.8 0.6 1.3 0 0.4-0.2 0.8-0.6 1.1-0.8 0.7-1.8 1.2-3 1.6s-2.3 0.6-3.4 0.6c-1.9 0-3.7-0.4-5.2-1.3s-2.7-2.1-3.6-3.7-1.3-3.4-1.3-5.4 0.4-3.8 1.2-5.4 1.9-2.8 3.4-3.7 3.1-1.3 4.9-1.3 3.4 0.4 4.7 1.3 2.3 2 3 3.6c0.7 1.5 1.1 3.3 1.1 5.3 0.1 0.4 0 0.8-0.3 1.1zm-12.5-6.6c-1.1 1-1.8 2.4-2 4h11.8c-0.2-1.7-0.8-3-1.8-4s-2.2-1.5-3.8-1.5c-1.8 0-3.2 0.5-4.2 1.5z"></path> <path class="st2" d="m502.3 153.6c-1.4-0.5-2.5-1.2-3.3-2.1-0.3-0.3-0.5-0.7-0.5-1.2 0-0.6 0.2-1.1 0.7-1.5s0.9-0.5 1.2-0.5c0.5 0 0.9 0.2 1.3 0.7 0.5 0.5 1.1 1 2 1.4s1.8 0.6 2.9 0.6c1.3 0 2.4-0.2 3.1-0.7s1.1-1.1 1.1-1.9-0.4-1.4-1.1-1.9-2-0.9-3.7-1.3c-4.5-0.9-6.8-2.9-6.8-5.9 0-1.2 0.3-2.3 1-3.1 0.7-0.9 1.6-1.5 2.7-1.9s2.3-0.6 3.5-0.6c1.5 0 2.9 0.3 4.1 0.8s2.2 1.2 2.9 2.2c0.3 0.4 0.5 0.8 0.5 1.2s-0.2 0.8-0.6 1.2c-0.3 0.2-0.6 0.3-1 0.3-0.6 0-1.2-0.2-1.7-0.7-0.6-0.6-1.2-1-1.9-1.2s-1.5-0.4-2.4-0.4c-1.1 0-2 0.2-2.7 0.6s-1 0.9-1 1.6c0 0.5 0.1 0.9 0.3 1.3 0.2 0.3 0.7 0.6 1.3 0.9 0.7 0.3 1.6 0.6 2.9 0.9 2.6 0.6 4.4 1.3 5.5 2.3s1.6 2.2 1.6 3.8c0 1.1-0.3 2.2-0.9 3.1s-1.5 1.7-2.6 2.2-2.5 0.8-4.1 0.8c-1.4-0.2-2.8-0.5-4.3-1z"></path> <path class="st2" d="m526.6 129.6c-0.5-0.5-0.7-1.1-0.7-1.8s0.2-1.3 0.7-1.8 1-0.7 1.6-0.7 1.2 0.2 1.6 0.7c0.5 0.5 0.7 1.1 0.7 1.8s-0.2 1.3-0.7 1.8-1 0.7-1.6 0.7-1.1-0.3-1.6-0.7zm0.4 24.1c-0.3-0.4-0.5-0.8-0.5-1.4v-16.7c0-0.6 0.2-1 0.5-1.4s0.8-0.5 1.3-0.5 1 0.2 1.3 0.5 0.5 0.8 0.5 1.4v16.7c0 0.6-0.2 1-0.5 1.4s-0.8 0.6-1.3 0.6c-0.6-0.1-1-0.3-1.3-0.6z"></path> <path class="st2" d="m557.6 134.8c1.5 0.9 2.6 2.1 3.5 3.7 0.8 1.6 1.3 3.4 1.3 5.4v8.1c0 2-0.4 3.8-1.2 5.4s-2 2.9-3.5 3.9-3.2 1.4-5.1 1.4c-1.7 0-3.3-0.4-4.7-1.1-1.5-0.7-2.7-1.7-3.7-3.1-0.3-0.4-0.4-0.7-0.4-1.1 0-0.5 0.2-1 0.7-1.4 0.3-0.2 0.7-0.3 1-0.3 0.6 0 1.1 0.3 1.5 0.8 0.6 0.9 1.4 1.6 2.4 2 1 0.5 2.1 0.7 3.3 0.7s2.2-0.3 3.2-0.9c0.9-0.6 1.7-1.5 2.3-2.6s0.8-2.5 0.8-4.1v-1.6c-0.7 1.4-1.7 2.5-2.9 3.2-1.2 0.8-2.6 1.2-4.1 1.2-1.7 0-3.3-0.4-4.7-1.3s-2.5-2.1-3.2-3.7c-0.8-1.6-1.2-3.4-1.2-5.4s0.4-3.8 1.2-5.4 2-2.8 3.5-3.7 3.2-1.3 5.1-1.3c1.8-0.1 3.4 0.3 4.9 1.2zm-1.8 15.3c1-0.6 1.7-1.4 2.2-2.5s0.8-2.3 0.8-3.6-0.3-2.6-0.8-3.6c-0.5-1.1-1.3-1.9-2.2-2.5-1-0.6-2-0.9-3.2-0.9s-2.3 0.3-3.2 0.9-1.7 1.4-2.2 2.5-0.8 2.3-0.8 3.6 0.3 2.6 0.8 3.6 1.3 1.9 2.2 2.5 2 0.9 3.2 0.9 2.3-0.3 3.2-0.9z"></path> <path class="st2" d="m588.8 134.6c1.3 0.8 2.3 1.9 3 3.3s1.1 3.2 1.1 5.2v9.3c0 0.6-0.2 1-0.5 1.4s-0.8 0.6-1.3 0.6-1-0.2-1.3-0.6-0.5-0.8-0.5-1.4v-9.3c0-2-0.5-3.6-1.5-4.6s-2.4-1.6-4.1-1.6c-1 0-1.9 0.2-2.7 0.6s-1.5 1-1.9 1.7c-0.5 0.7-0.7 1.5-0.7 2.4v10.6c0 0.6-0.2 1-0.5 1.4s-0.8 0.6-1.3 0.6-1-0.2-1.3-0.6-0.5-0.8-0.5-1.4v-16.8c0-0.6 0.2-1 0.5-1.4s0.8-0.5 1.3-0.5 1 0.2 1.3 0.5 0.5 0.8 0.5 1.4v0.4c0.8-0.8 1.7-1.4 2.7-1.9s2.2-0.7 3.3-0.7c1.6 0.3 3.1 0.6 4.4 1.4z"></path> <path class="st2" d="m622.8 144.8c-0.3 0.3-0.7 0.5-1.2 0.5h-13.4c0.3 1.8 1 3.2 2.2 4.2 1.2 1.1 2.8 1.6 4.5 1.6 0.7 0 1.4-0.1 2.2-0.4s1.4-0.6 1.9-1c0.3-0.3 0.7-0.4 1.2-0.4s0.8 0.1 1.1 0.4c0.4 0.4 0.6 0.8 0.6 1.3 0 0.4-0.2 0.8-0.6 1.1-0.8 0.7-1.8 1.2-3 1.6s-2.3 0.6-3.4 0.6c-1.9 0-3.7-0.4-5.2-1.3s-2.7-2.1-3.6-3.7-1.3-3.4-1.3-5.4 0.4-3.8 1.2-5.4 1.9-2.8 3.4-3.7 3.1-1.3 4.9-1.3 3.4 0.4 4.7 1.3 2.3 2 3 3.6c0.7 1.5 1.1 3.3 1.1 5.3 0.2 0.4 0.1 0.8-0.3 1.1zm-12.5-6.6c-1.1 1-1.8 2.4-2 4h11.8c-0.2-1.7-0.8-3-1.8-4s-2.2-1.5-3.8-1.5c-1.7 0-3.1 0.5-4.2 1.5z"></path> <path class="st2" d="m647.4 134c0.7 0.4 1.1 0.9 1.1 1.5v0.4c-0.2 0.8-0.7 1.2-1.4 1.2-0.1 0-0.3 0-0.5-0.1-0.9-0.2-1.7-0.3-2.3-0.3-1.7 0-3.1 0.4-4.1 1.2s-1.5 1.9-1.5 3.4v11c0 0.6-0.2 1.1-0.4 1.4-0.3 0.3-0.7 0.5-1.3 0.5s-1-0.2-1.3-0.5-0.5-0.8-0.5-1.4v-16.8c0-0.6 0.2-1.1 0.5-1.4s0.7-0.5 1.3-0.5c1.2 0 1.8 0.6 1.8 1.9v0.7c0.7-0.9 1.6-1.6 2.6-2.1s2.1-0.8 3.3-0.8c1 0.1 2 0.3 2.7 0.7z"></path> <path class="st0" d="m396 53.7v39.3c0 0.9-0.8 1.6-1.8 1.6h-13.9v-86c0-5 4.8-8.6 9.1-8.6h44.3c12.8 0 23.1 8.4 23.1 21.2v13.9c0 8.6-7.3 16.1-17.7 19l22 40.6h-15.1c-1 0-2-0.8-2.5-1.5l-20.5-38.2h-19.1c-1.2 0-4.9 0.2-7.6-1.3h-0.3zm36.4-12.2c4.9-0.2 8.7-3 8.9-8.3v-10.8c0-5.2-3.9-8.8-9.2-8.8h-34.7c-1.3 0-1.4 0.7-1.4 1.1v25.7c0 0.6 0.5 1.1 1.1 1.1h35.3z"></path> </svg> 